<svg width="33" height="34" viewBox="0 0 33 34" fill="none" xmlns="http://www.w3.org/2000/svg">
<g id="Group 182">
<g id="Group">
<g id="Group 181">
<path id="Ellipse 15" d="M30.6471 16.9993C30.6471 25.3511 24.1809 32.0827 16.2513 32.0827C8.32172 32.0827 1.85547 25.3511 1.85547 16.9993C1.85547 8.64755 8.32172 1.91602 16.2513 1.91602C24.1809 1.91602 30.6471 8.64755 30.6471 16.9993Z" fill="#FF5A50" stroke="white"/>
<g id="Group 192">
<path id="Vector" d="M14.3249 13.3791C13.8285 13.3746 13.4234 13.5444 13.1453 13.7122L14.3249 13.3791ZM14.3249 13.3791L14.3282 13L14.3249 13.3791ZM14.325 13.5C14.3251 13.5 14.3251 13.5 14.3252 13.5L14.325 13.5Z" fill="white" stroke="white"/>
<path id="Vector_2" d="M11.3517 11.8388L11.352 11.8385C13.165 9.94186 16.1117 9.94186 17.9248 11.8385C19.5324 13.5202 19.7243 16.1488 18.487 18.0642L18.2729 18.3957L18.5456 18.681L22.0295 22.3255L21.3423 23.0443L17.8896 19.4324L17.5914 19.1205L17.2392 19.3698C15.433 20.6488 12.9558 20.4571 11.352 18.7794L11.3517 18.7791C9.5234 16.8698 9.5234 13.7481 11.3517 11.8388ZM11.8125 18.2325C13.3677 19.8594 15.909 19.8594 17.4643 18.2325C19.0073 16.6183 19.0073 13.9995 17.4643 12.3854C15.909 10.7585 13.3677 10.7585 11.8125 12.3854C10.2694 13.9995 10.2694 16.6183 11.8125 18.2325Z" fill="white" stroke="white"/>
</g>
</g>
</g>
</g>
</svg>
